<?xml version="1.0" encoding="UTF-8" standalone="no"?>
<!DOCTYPE svg PUBLIC "-//W3C//DTD SVG 1.1//EN"
 "http://www.w3.org/Graphics/SVG/1.1/DTD/svg11.dtd">
<!-- Generated by graphviz version 2.43.0 (0)
 -->
<!-- Title: %3 Pages: 1 -->
<svg width="1063pt" height="332pt"
 viewBox="0.00 0.00 1063.35 332.00" xmlns="http://www.w3.org/2000/svg" xmlns:xlink="http://www.w3.org/1999/xlink">
<g id="graph0" class="graph" transform="scale(1 1) rotate(0) translate(4 328)">
<title>%3</title>
<polygon fill="white" stroke="transparent" points="-4,4 -4,-328 1059.35,-328 1059.35,4 -4,4"/>
<!-- [root] local_file.arquivo (expand) -->
<g id="node1" class="node">
<title>[root] local_file.arquivo (expand)</title>
<polygon fill="none" stroke="black" points="418.48,-180 281.48,-180 281.48,-144 418.48,-144 418.48,-180"/>
<text text-anchor="middle" x="349.98" y="-158.3" font-family="Times,serif" font-size="14.00">local_file.arquivo</text>
</g>
<!-- [root] provider[&quot;registry.terraform.io/hashicorp/local&quot;] -->
<g id="node2" class="node">
<title>[root] provider[&quot;registry.terraform.io/hashicorp/local&quot;]</title>
<polygon fill="none" stroke="black" points="329.98,-108 0.02,-90 329.98,-72 659.93,-90 329.98,-108"/>
<text text-anchor="middle" x="329.98" y="-86.3" font-family="Times,serif" font-size="14.00">provider[&quot;registry.terraform.io/hashicorp/local&quot;]</text>
</g>
<!-- [root] local_file.arquivo (expand)&#45;&gt;[root] provider[&quot;registry.terraform.io/hashicorp/local&quot;] -->
<g id="edge1" class="edge">
<title>[root] local_file.arquivo (expand)&#45;&gt;[root] provider[&quot;registry.terraform.io/hashicorp/local&quot;]</title>
<path fill="none" stroke="black" d="M345.03,-143.7C342.81,-135.9 340.12,-126.51 337.64,-117.83"/>
<polygon fill="black" stroke="black" points="340.98,-116.76 334.86,-108.1 334.25,-118.68 340.98,-116.76"/>
</g>
<!-- [root] random_pet.pets (expand) -->
<g id="node4" class="node">
<title>[root] random_pet.pets (expand)</title>
<polygon fill="none" stroke="black" points="814.48,-108 677.48,-108 677.48,-72 814.48,-72 814.48,-108"/>
<text text-anchor="middle" x="745.98" y="-86.3" font-family="Times,serif" font-size="14.00">random_pet.pets</text>
</g>
<!-- [root] local_file.arquivo (expand)&#45;&gt;[root] random_pet.pets (expand) -->
<g id="edge2" class="edge">
<title>[root] local_file.arquivo (expand)&#45;&gt;[root] random_pet.pets (expand)</title>
<path fill="none" stroke="black" d="M418.83,-145.73C421.92,-145.13 424.98,-144.55 427.98,-144 531.38,-125.03 560.78,-127.52 667.32,-108.24"/>
<polygon fill="black" stroke="black" points="667.97,-111.68 677.18,-106.44 666.71,-104.79 667.97,-111.68"/>
</g>
<!-- [root] provider[&quot;registry.terraform.io/hashicorp/random&quot;] -->
<g id="node3" class="node">
<title>[root] provider[&quot;registry.terraform.io/hashicorp/random&quot;]</title>
<polygon fill="none" stroke="black" points="530.98,-36 180.58,-18 530.98,0 881.38,-18 530.98,-36"/>
<text text-anchor="middle" x="530.98" y="-14.3" font-family="Times,serif" font-size="14.00">provider[&quot;registry.terraform.io/hashicorp/random&quot;]</text>
</g>
<!-- [root] random_pet.pets (expand)&#45;&gt;[root] provider[&quot;registry.terraform.io/hashicorp/random&quot;] -->
<g id="edge5" class="edge">
<title>[root] random_pet.pets (expand)&#45;&gt;[root] provider[&quot;registry.terraform.io/hashicorp/random&quot;]</title>
<path fill="none" stroke="black" d="M693.66,-71.97C660.96,-61.32 618.93,-47.63 585.77,-36.84"/>
<polygon fill="black" stroke="black" points="586.83,-33.5 576.23,-33.73 584.66,-40.16 586.83,-33.5"/>
</g>
<!-- [root] var.quantidade -->
<g id="node5" class="node">
<title>[root] var.quantidade</title>
<polygon fill="none" stroke="black" points="1016.48,-36 899.48,-36 899.48,0 1022.48,0 1022.48,-30 1016.48,-36"/>
<polyline fill="none" stroke="black" points="1016.48,-36 1016.48,-30 "/>
<polyline fill="none" stroke="black" points="1022.48,-30 1016.48,-30 "/>
<text text-anchor="middle" x="960.98" y="-14.3" font-family="Times,serif" font-size="14.00">var.quantidade</text>
</g>
<!-- [root] random_pet.pets (expand)&#45;&gt;[root] var.quantidade -->
<g id="edge6" class="edge">
<title>[root] random_pet.pets (expand)&#45;&gt;[root] var.quantidade</title>
<path fill="none" stroke="black" d="M798.3,-71.97C828.6,-62.1 866.93,-49.62 898.77,-39.25"/>
<polygon fill="black" stroke="black" points="900,-42.53 908.42,-36.11 897.83,-35.88 900,-42.53"/>
</g>
<!-- [root] provider[&quot;registry.terraform.io/hashicorp/local&quot;] (close) -->
<g id="node6" class="node">
<title>[root] provider[&quot;registry.terraform.io/hashicorp/local&quot;] (close)</title>
<ellipse fill="none" stroke="black" cx="385.98" cy="-234" rx="295.95" ry="18"/>
<text text-anchor="middle" x="385.98" y="-230.3" font-family="Times,serif" font-size="14.00">[root] provider[&quot;registry.terraform.io/hashicorp/local&quot;] (close)</text>
</g>
<!-- [root] provider[&quot;registry.terraform.io/hashicorp/local&quot;] (close)&#45;&gt;[root] local_file.arquivo (expand) -->
<g id="edge3" class="edge">
<title>[root] provider[&quot;registry.terraform.io/hashicorp/local&quot;] (close)&#45;&gt;[root] local_file.arquivo (expand)</title>
<path fill="none" stroke="black" d="M377.08,-215.7C372.98,-207.73 368.03,-198.1 363.48,-189.26"/>
<polygon fill="black" stroke="black" points="366.46,-187.4 358.77,-180.1 360.23,-190.6 366.46,-187.4"/>
</g>
<!-- [root] provider[&quot;registry.terraform.io/hashicorp/random&quot;] (close) -->
<g id="node7" class="node">
<title>[root] provider[&quot;registry.terraform.io/hashicorp/random&quot;] (close)</title>
<ellipse fill="none" stroke="black" cx="745.98" cy="-162" rx="309.25" ry="18"/>
<text text-anchor="middle" x="745.98" y="-158.3" font-family="Times,serif" font-size="14.00">[root] provider[&quot;registry.terraform.io/hashicorp/random&quot;] (close)</text>
</g>
<!-- [root] provider[&quot;registry.terraform.io/hashicorp/random&quot;] (close)&#45;&gt;[root] random_pet.pets (expand) -->
<g id="edge4" class="edge">
<title>[root] provider[&quot;registry.terraform.io/hashicorp/random&quot;] (close)&#45;&gt;[root] random_pet.pets (expand)</title>
<path fill="none" stroke="black" d="M745.98,-143.7C745.98,-135.98 745.98,-126.71 745.98,-118.11"/>
<polygon fill="black" stroke="black" points="749.48,-118.1 745.98,-108.1 742.48,-118.1 749.48,-118.1"/>
</g>
<!-- [root] root -->
<g id="node8" class="node">
<title>[root] root</title>
<ellipse fill="none" stroke="black" cx="547.98" cy="-306" rx="58.49" ry="18"/>
<text text-anchor="middle" x="547.98" y="-302.3" font-family="Times,serif" font-size="14.00">[root] root</text>
</g>
<!-- [root] root&#45;&gt;[root] provider[&quot;registry.terraform.io/hashicorp/local&quot;] (close) -->
<g id="edge7" class="edge">
<title>[root] root&#45;&gt;[root] provider[&quot;registry.terraform.io/hashicorp/local&quot;] (close)</title>
<path fill="none" stroke="black" d="M515.58,-291C492.39,-280.98 460.77,-267.32 434.56,-255.99"/>
<polygon fill="black" stroke="black" points="435.75,-252.69 425.18,-251.94 432.97,-259.12 435.75,-252.69"/>
</g>
<!-- [root] root&#45;&gt;[root] provider[&quot;registry.terraform.io/hashicorp/random&quot;] (close) -->
<g id="edge8" class="edge">
<title>[root] root&#45;&gt;[root] provider[&quot;registry.terraform.io/hashicorp/random&quot;] (close)</title>
<path fill="none" stroke="black" d="M596.09,-295.59C625.92,-287.84 663.63,-274.39 690.98,-252 711.3,-235.36 726.21,-209.13 735.34,-189.45"/>
<polygon fill="black" stroke="black" points="738.62,-190.67 739.47,-180.11 732.22,-187.84 738.62,-190.67"/>
</g>
</g>
</svg>
